<mxfile host="app.diagrams.net" modified="2024-07-18T01:58:32.739Z" agent="Mozilla/5.0 (Windows NT 10.0; Win64; x64; rv:128.0) Gecko/20100101 Firefox/128.0" etag="3TAQxQB4igBkFlQmFKQw" version="24.7.1" type="github">
  <diagram name="Page-1" id="EMbywS06_46YJERvihtH">
    <mxGraphModel dx="1185" dy="636" grid="1" gridSize="10" guides="1" tooltips="1" connect="1" arrows="1" fold="1" page="1" pageScale="1" pageWidth="850" pageHeight="1100" math="0" shadow="0">
      <root>
        <mxCell id="0" />
        <mxCell id="1" parent="0" />
        <mxCell id="vIJQHhq6bZ1wqWFp3NPp-1" value="UI: showMenu()" style="shape=umlLifeline;perimeter=lifelinePerimeter;whiteSpace=wrap;html=1;container=0;dropTarget=0;collapsible=0;recursiveResize=0;outlineConnect=0;portConstraint=eastwest;newEdgeStyle={&quot;edgeStyle&quot;:&quot;elbowEdgeStyle&quot;,&quot;elbow&quot;:&quot;vertical&quot;,&quot;curved&quot;:0,&quot;rounded&quot;:0};" vertex="1" parent="1">
          <mxGeometry x="10" y="30" width="100" height="410" as="geometry" />
        </mxCell>
        <mxCell id="vIJQHhq6bZ1wqWFp3NPp-2" value="" style="html=1;points=[];perimeter=orthogonalPerimeter;outlineConnect=0;targetShapes=umlLifeline;portConstraint=eastwest;newEdgeStyle={&quot;edgeStyle&quot;:&quot;elbowEdgeStyle&quot;,&quot;elbow&quot;:&quot;vertical&quot;,&quot;curved&quot;:0,&quot;rounded&quot;:0};" vertex="1" parent="vIJQHhq6bZ1wqWFp3NPp-1">
          <mxGeometry x="45" y="70" width="10" height="260" as="geometry" />
        </mxCell>
        <mxCell id="vIJQHhq6bZ1wqWFp3NPp-3" value="PayStatementDAO()" style="shape=umlLifeline;perimeter=lifelinePerimeter;whiteSpace=wrap;html=1;container=0;dropTarget=0;collapsible=0;recursiveResize=0;outlineConnect=0;portConstraint=eastwest;newEdgeStyle={&quot;edgeStyle&quot;:&quot;elbowEdgeStyle&quot;,&quot;elbow&quot;:&quot;vertical&quot;,&quot;curved&quot;:0,&quot;rounded&quot;:0};" vertex="1" parent="1">
          <mxGeometry x="190" y="30" width="130" height="410" as="geometry" />
        </mxCell>
        <mxCell id="vIJQHhq6bZ1wqWFp3NPp-4" value="" style="html=1;points=[];perimeter=orthogonalPerimeter;outlineConnect=0;targetShapes=umlLifeline;portConstraint=eastwest;newEdgeStyle={&quot;edgeStyle&quot;:&quot;elbowEdgeStyle&quot;,&quot;elbow&quot;:&quot;vertical&quot;,&quot;curved&quot;:0,&quot;rounded&quot;:0};" vertex="1" parent="vIJQHhq6bZ1wqWFp3NPp-3">
          <mxGeometry x="60" y="70" width="10" height="260" as="geometry" />
        </mxCell>
        <mxCell id="vIJQHhq6bZ1wqWFp3NPp-5" value="JDBC" style="shape=umlLifeline;perimeter=lifelinePerimeter;whiteSpace=wrap;html=1;container=0;dropTarget=0;collapsible=0;recursiveResize=0;outlineConnect=0;portConstraint=eastwest;newEdgeStyle={&quot;edgeStyle&quot;:&quot;elbowEdgeStyle&quot;,&quot;elbow&quot;:&quot;vertical&quot;,&quot;curved&quot;:0,&quot;rounded&quot;:0};" vertex="1" parent="1">
          <mxGeometry x="380" y="30" width="100" height="410" as="geometry" />
        </mxCell>
        <mxCell id="vIJQHhq6bZ1wqWFp3NPp-6" value="" style="html=1;points=[];perimeter=orthogonalPerimeter;outlineConnect=0;targetShapes=umlLifeline;portConstraint=eastwest;newEdgeStyle={&quot;edgeStyle&quot;:&quot;elbowEdgeStyle&quot;,&quot;elbow&quot;:&quot;vertical&quot;,&quot;curved&quot;:0,&quot;rounded&quot;:0};" vertex="1" parent="vIJQHhq6bZ1wqWFp3NPp-5">
          <mxGeometry x="45" y="70" width="10" height="260" as="geometry" />
        </mxCell>
        <mxCell id="vIJQHhq6bZ1wqWFp3NPp-7" value="getPayStatementByIdUI()" style="html=1;verticalAlign=bottom;endArrow=block;edgeStyle=elbowEdgeStyle;elbow=vertical;curved=0;rounded=0;" edge="1" parent="1">
          <mxGeometry relative="1" as="geometry">
            <mxPoint x="65" y="120" as="sourcePoint" />
            <Array as="points">
              <mxPoint x="190" y="120" />
            </Array>
            <mxPoint x="250" y="120" as="targetPoint" />
            <mxPoint as="offset" />
          </mxGeometry>
        </mxCell>
        <mxCell id="vIJQHhq6bZ1wqWFp3NPp-8" value="getTotalPayByJobTitleUI()" style="html=1;verticalAlign=bottom;endArrow=block;edgeStyle=elbowEdgeStyle;elbow=vertical;curved=0;rounded=0;" edge="1" parent="1">
          <mxGeometry relative="1" as="geometry">
            <mxPoint x="65" y="140" as="sourcePoint" />
            <Array as="points">
              <mxPoint x="195" y="140" />
            </Array>
            <mxPoint x="250" y="140" as="targetPoint" />
            <mxPoint as="offset" />
          </mxGeometry>
        </mxCell>
        <mxCell id="vIJQHhq6bZ1wqWFp3NPp-9" value="getTotalPayByDivisionUI()" style="html=1;verticalAlign=bottom;endArrow=block;edgeStyle=elbowEdgeStyle;elbow=vertical;curved=0;rounded=0;" edge="1" parent="1">
          <mxGeometry relative="1" as="geometry">
            <mxPoint x="65" y="160" as="sourcePoint" />
            <Array as="points">
              <mxPoint x="190" y="160" />
            </Array>
            <mxPoint x="250" y="160" as="targetPoint" />
            <mxPoint as="offset" />
          </mxGeometry>
        </mxCell>
        <mxCell id="vIJQHhq6bZ1wqWFp3NPp-10" value="getPayStatementById(id)" style="html=1;verticalAlign=bottom;endArrow=block;edgeStyle=elbowEdgeStyle;elbow=vertical;curved=0;rounded=0;" edge="1" parent="1">
          <mxGeometry relative="1" as="geometry">
            <mxPoint x="260" y="120" as="sourcePoint" />
            <Array as="points">
              <mxPoint x="335" y="120" />
            </Array>
            <mxPoint x="425" y="120" as="targetPoint" />
            <mxPoint as="offset" />
          </mxGeometry>
        </mxCell>
        <mxCell id="vIJQHhq6bZ1wqWFp3NPp-11" value="getTotalPayByJobTitle(jobTitle)" style="html=1;verticalAlign=bottom;endArrow=block;edgeStyle=elbowEdgeStyle;elbow=vertical;curved=0;rounded=0;" edge="1" parent="1">
          <mxGeometry relative="1" as="geometry">
            <mxPoint x="260" y="140" as="sourcePoint" />
            <Array as="points">
              <mxPoint x="340" y="140" />
            </Array>
            <mxPoint x="425" y="140" as="targetPoint" />
            <mxPoint as="offset" />
          </mxGeometry>
        </mxCell>
        <mxCell id="vIJQHhq6bZ1wqWFp3NPp-12" value="getTotalPayByDivision(division)" style="html=1;verticalAlign=bottom;endArrow=block;edgeStyle=elbowEdgeStyle;elbow=vertical;curved=0;rounded=0;" edge="1" parent="1">
          <mxGeometry relative="1" as="geometry">
            <mxPoint x="260" y="160" as="sourcePoint" />
            <Array as="points">
              <mxPoint x="335" y="160" />
            </Array>
            <mxPoint x="425" y="160" as="targetPoint" />
            <mxPoint as="offset" />
          </mxGeometry>
        </mxCell>
        <mxCell id="vIJQHhq6bZ1wqWFp3NPp-13" value="Data Base" style="shape=umlLifeline;perimeter=lifelinePerimeter;whiteSpace=wrap;html=1;container=0;dropTarget=0;collapsible=0;recursiveResize=0;outlineConnect=0;portConstraint=eastwest;newEdgeStyle={&quot;edgeStyle&quot;:&quot;elbowEdgeStyle&quot;,&quot;elbow&quot;:&quot;vertical&quot;,&quot;curved&quot;:0,&quot;rounded&quot;:0};size=40;" vertex="1" parent="1">
          <mxGeometry x="540" y="30" width="100" height="410" as="geometry" />
        </mxCell>
        <mxCell id="vIJQHhq6bZ1wqWFp3NPp-14" value="" style="html=1;points=[];perimeter=orthogonalPerimeter;outlineConnect=0;targetShapes=umlLifeline;portConstraint=eastwest;newEdgeStyle={&quot;edgeStyle&quot;:&quot;elbowEdgeStyle&quot;,&quot;elbow&quot;:&quot;vertical&quot;,&quot;curved&quot;:0,&quot;rounded&quot;:0};" vertex="1" parent="vIJQHhq6bZ1wqWFp3NPp-13">
          <mxGeometry x="45" y="70" width="10" height="260" as="geometry" />
        </mxCell>
      </root>
    </mxGraphModel>
  </diagram>
</mxfile>
